<mxfile host="Electron" agent="Mozilla/5.0 (Windows NT 10.0; Win64; x64) AppleWebKit/537.36 (KHTML, like Gecko) draw.io/24.7.5 Chrome/126.0.6478.183 Electron/31.3.0 Safari/537.36" version="24.7.5">
  <diagram name="Page-1" id="2YBvvXClWsGukQMizWep">
    <mxGraphModel dx="1038" dy="623" grid="1" gridSize="10" guides="1" tooltips="1" connect="1" arrows="1" fold="1" page="1" pageScale="1" pageWidth="850" pageHeight="1100" math="0" shadow="0">
      <root>
        <mxCell id="0" />
        <mxCell id="1" parent="0" />
        <mxCell id="_K5hXEtLiumcz_P_pY0n-9" value="&lt;h1 style=&quot;margin-top: 0px;&quot;&gt;Get Weather&lt;/h1&gt;" style="text;html=1;whiteSpace=wrap;overflow=hidden;rounded=0;fillColor=#fff2cc;strokeColor=#d6b656;align=center;" parent="1" vertex="1">
          <mxGeometry x="30" y="70" width="180" height="40" as="geometry" />
        </mxCell>
        <mxCell id="_K5hXEtLiumcz_P_pY0n-15" value=":WeatherView" style="shape=umlLifeline;perimeter=lifelinePerimeter;whiteSpace=wrap;html=1;container=1;dropTarget=0;collapsible=0;recursiveResize=0;outlineConnect=0;portConstraint=eastwest;newEdgeStyle={&quot;curved&quot;:0,&quot;rounded&quot;:0};fillColor=#dae8fc;strokeColor=#6c8ebf;" parent="1" vertex="1">
          <mxGeometry x="181" y="158" width="100" height="202" as="geometry" />
        </mxCell>
        <mxCell id="_K5hXEtLiumcz_P_pY0n-16" value="" style="shape=umlLifeline;perimeter=lifelinePerimeter;whiteSpace=wrap;html=1;container=1;dropTarget=0;collapsible=0;recursiveResize=0;outlineConnect=0;portConstraint=eastwest;newEdgeStyle={&quot;curved&quot;:0,&quot;rounded&quot;:0};participant=umlActor;" parent="1" vertex="1">
          <mxGeometry x="41" y="158" width="20" height="200" as="geometry" />
        </mxCell>
        <mxCell id="xQqwbZQ7rbEleP5Mknus-3" value="" style="html=1;points=[[0,0,0,0,5],[0,1,0,0,-5],[1,0,0,0,5],[1,1,0,0,-5]];perimeter=orthogonalPerimeter;outlineConnect=0;targetShapes=umlLifeline;portConstraint=eastwest;newEdgeStyle={&quot;curved&quot;:0,&quot;rounded&quot;:0};fillColor=#fff2cc;strokeColor=#d6b656;" parent="_K5hXEtLiumcz_P_pY0n-16" vertex="1">
          <mxGeometry x="5" y="60" width="10" height="140" as="geometry" />
        </mxCell>
        <mxCell id="_K5hXEtLiumcz_P_pY0n-17" value="" style="shape=umlLifeline;perimeter=lifelinePerimeter;whiteSpace=wrap;html=1;container=1;dropTarget=0;collapsible=0;recursiveResize=0;outlineConnect=0;portConstraint=eastwest;newEdgeStyle={&quot;curved&quot;:0,&quot;rounded&quot;:0};participant=umlActor;" parent="1" vertex="1">
          <mxGeometry x="791" y="158" width="20" height="200" as="geometry" />
        </mxCell>
        <mxCell id="xQqwbZQ7rbEleP5Mknus-5" value="" style="html=1;points=[[0,0,0,0,5],[0,1,0,0,-5],[1,0,0,0,5],[1,1,0,0,-5]];perimeter=orthogonalPerimeter;outlineConnect=0;targetShapes=umlLifeline;portConstraint=eastwest;newEdgeStyle={&quot;curved&quot;:0,&quot;rounded&quot;:0};fillColor=#fff2cc;strokeColor=#d6b656;" parent="_K5hXEtLiumcz_P_pY0n-17" vertex="1">
          <mxGeometry x="5" y="60" width="10" height="140" as="geometry" />
        </mxCell>
        <mxCell id="_K5hXEtLiumcz_P_pY0n-18" value="Client" style="text;align=center;fontStyle=1;verticalAlign=middle;spacingLeft=3;spacingRight=3;strokeColor=none;rotatable=0;points=[[0,0.5],[1,0.5]];portConstraint=eastwest;html=1;" parent="1" vertex="1">
          <mxGeometry x="11" y="130" width="80" height="26" as="geometry" />
        </mxCell>
        <mxCell id="_K5hXEtLiumcz_P_pY0n-19" value="API" style="text;align=center;fontStyle=1;verticalAlign=middle;spacingLeft=3;spacingRight=3;strokeColor=none;rotatable=0;points=[[0,0.5],[1,0.5]];portConstraint=eastwest;html=1;" parent="1" vertex="1">
          <mxGeometry x="761" y="130" width="80" height="26" as="geometry" />
        </mxCell>
        <mxCell id="_K5hXEtLiumcz_P_pY0n-20" value=":WeatherController" style="shape=umlLifeline;perimeter=lifelinePerimeter;whiteSpace=wrap;html=1;container=1;dropTarget=0;collapsible=0;recursiveResize=0;outlineConnect=0;portConstraint=eastwest;newEdgeStyle={&quot;curved&quot;:0,&quot;rounded&quot;:0};fillColor=#e1d5e7;strokeColor=#9673a6;" parent="1" vertex="1">
          <mxGeometry x="356" y="158" width="140" height="200" as="geometry" />
        </mxCell>
        <mxCell id="xQqwbZQ7rbEleP5Mknus-1" value="" style="html=1;points=[[0,0,0,0,5],[0,1,0,0,-5],[1,0,0,0,5],[1,1,0,0,-5]];perimeter=orthogonalPerimeter;outlineConnect=0;targetShapes=umlLifeline;portConstraint=eastwest;newEdgeStyle={&quot;curved&quot;:0,&quot;rounded&quot;:0};fillColor=#e1d5e7;strokeColor=#9673a6;" parent="_K5hXEtLiumcz_P_pY0n-20" vertex="1">
          <mxGeometry x="65" y="60" width="10" height="140" as="geometry" />
        </mxCell>
        <mxCell id="_K5hXEtLiumcz_P_pY0n-21" value=":Weather" style="shape=umlLifeline;perimeter=lifelinePerimeter;whiteSpace=wrap;html=1;container=1;dropTarget=0;collapsible=0;recursiveResize=0;outlineConnect=0;portConstraint=eastwest;newEdgeStyle={&quot;curved&quot;:0,&quot;rounded&quot;:0};fillColor=#f8cecc;strokeColor=#b85450;" parent="1" vertex="1">
          <mxGeometry x="571" y="158" width="100" height="200" as="geometry" />
        </mxCell>
        <mxCell id="xQqwbZQ7rbEleP5Mknus-4" value="" style="html=1;points=[[0,0,0,0,5],[0,1,0,0,-5],[1,0,0,0,5],[1,1,0,0,-5]];perimeter=orthogonalPerimeter;outlineConnect=0;targetShapes=umlLifeline;portConstraint=eastwest;newEdgeStyle={&quot;curved&quot;:0,&quot;rounded&quot;:0};fillColor=#f8cecc;strokeColor=#b85450;" parent="_K5hXEtLiumcz_P_pY0n-21" vertex="1">
          <mxGeometry x="45" y="60" width="10" height="140" as="geometry" />
        </mxCell>
        <mxCell id="_K5hXEtLiumcz_P_pY0n-22" value="Show Weather In City N" style="html=1;verticalAlign=bottom;startArrow=oval;startFill=1;endArrow=block;startSize=8;curved=0;rounded=0;entryX=-0.1;entryY=0.071;entryDx=0;entryDy=0;entryPerimeter=0;" parent="1" target="xQqwbZQ7rbEleP5Mknus-1" edge="1">
          <mxGeometry width="60" relative="1" as="geometry">
            <mxPoint x="61" y="228" as="sourcePoint" />
            <mxPoint x="420" y="228" as="targetPoint" />
          </mxGeometry>
        </mxCell>
        <mxCell id="_K5hXEtLiumcz_P_pY0n-23" value="getWeather()" style="html=1;verticalAlign=bottom;endArrow=block;curved=0;rounded=0;" parent="1" edge="1">
          <mxGeometry width="80" relative="1" as="geometry">
            <mxPoint x="431" y="228" as="sourcePoint" />
            <mxPoint x="616" y="228" as="targetPoint" />
          </mxGeometry>
        </mxCell>
        <mxCell id="_K5hXEtLiumcz_P_pY0n-24" value="fetchWeather($city)" style="html=1;verticalAlign=bottom;endArrow=block;curved=0;rounded=0;" parent="1" target="xQqwbZQ7rbEleP5Mknus-5" edge="1">
          <mxGeometry width="80" relative="1" as="geometry">
            <mxPoint x="626" y="229" as="sourcePoint" />
            <mxPoint x="790" y="230" as="targetPoint" />
          </mxGeometry>
        </mxCell>
        <mxCell id="_K5hXEtLiumcz_P_pY0n-27" value="renderWeather($data, $city)" style="html=1;verticalAlign=bottom;endArrow=block;curved=0;rounded=0;" parent="1" target="xQqwbZQ7rbEleP5Mknus-2" edge="1">
          <mxGeometry width="80" relative="1" as="geometry">
            <mxPoint x="420" y="318" as="sourcePoint" />
            <mxPoint x="240" y="318" as="targetPoint" />
          </mxGeometry>
        </mxCell>
        <mxCell id="_K5hXEtLiumcz_P_pY0n-28" value="$data" style="html=1;verticalAlign=bottom;endArrow=open;dashed=1;endSize=8;curved=0;rounded=0;" parent="1" edge="1">
          <mxGeometry relative="1" as="geometry">
            <mxPoint x="796" y="318" as="sourcePoint" />
            <mxPoint x="626" y="318" as="targetPoint" />
          </mxGeometry>
        </mxCell>
        <mxCell id="_K5hXEtLiumcz_P_pY0n-29" value="$data" style="html=1;verticalAlign=bottom;endArrow=open;dashed=1;endSize=8;curved=0;rounded=0;" parent="1" source="xQqwbZQ7rbEleP5Mknus-4" edge="1">
          <mxGeometry relative="1" as="geometry">
            <mxPoint x="610" y="318" as="sourcePoint" />
            <mxPoint x="430" y="318" as="targetPoint" />
          </mxGeometry>
        </mxCell>
        <mxCell id="_K5hXEtLiumcz_P_pY0n-30" value="displayWeather($data, $city)" style="html=1;verticalAlign=bottom;endArrow=block;curved=0;rounded=0;" parent="1" target="xQqwbZQ7rbEleP5Mknus-3" edge="1">
          <mxGeometry width="80" relative="1" as="geometry">
            <mxPoint x="231" y="318" as="sourcePoint" />
            <mxPoint x="60" y="320" as="targetPoint" />
          </mxGeometry>
        </mxCell>
        <mxCell id="xQqwbZQ7rbEleP5Mknus-2" value="" style="html=1;points=[[0,0,0,0,5],[0,1,0,0,-5],[1,0,0,0,5],[1,1,0,0,-5]];perimeter=orthogonalPerimeter;outlineConnect=0;targetShapes=umlLifeline;portConstraint=eastwest;newEdgeStyle={&quot;curved&quot;:0,&quot;rounded&quot;:0};fillColor=#dae8fc;strokeColor=#6c8ebf;" parent="1" vertex="1">
          <mxGeometry x="226" y="298" width="10" height="60" as="geometry" />
        </mxCell>
      </root>
    </mxGraphModel>
  </diagram>
</mxfile>
